<svg xmlns="http://www.w3.org/2000/svg" viewBox="0 0 24 24"><path d="M18,12a6,6,0,1,1-6-6A6,6,0,0,1,18,12Zm5.5-1.21A1.71,1.71,0,1,0,24,12,1.71,1.71,0,0,0,23.5,10.79Zm-5.94,8.48a1.71,1.71,0,1,0,.5-1.21A1.75,1.75,0,0,0,17.56,19.27Zm-7.27,3a1.71,1.71,0,1,0,2.92-1.22,1.71,1.71,0,0,0-2.42,0A1.71,1.71,0,0,0,10.29,22.29ZM3,19.27A1.71,1.71,0,0,0,4.73,21a1.72,1.72,0,0,0,1.21-.5,1.74,1.74,0,0,0,.5-1.22,1.71,1.71,0,0,0-1.71-1.71,1.74,1.74,0,0,0-1.22.5A1.72,1.72,0,0,0,3,19.27ZM0,12a1.72,1.72,0,0,0,.5,1.21,1.69,1.69,0,0,0,1.21.5,1.71,1.71,0,1,0,0-3.42,1.69,1.69,0,0,0-1.21.5A1.72,1.72,0,0,0,0,12ZM3,4.73a1.71,1.71,0,0,0,.5,1.21,1.73,1.73,0,0,0,1.22.5A1.71,1.71,0,0,0,6.44,4.73a1.73,1.73,0,0,0-.5-1.22A1.71,1.71,0,0,0,4.73,3,1.71,1.71,0,0,0,3,4.73Zm14.55,0a1.71,1.71,0,0,0,1.71,1.71,1.73,1.73,0,0,0,1.22-.5A1.71,1.71,0,0,0,21,4.73,1.71,1.71,0,0,0,19.27,3a1.71,1.71,0,0,0-1.21.5A1.73,1.73,0,0,0,17.56,4.73Zm-3.85-3a1.71,1.71,0,1,0-.5,1.22A1.7,1.7,0,0,0,13.71,1.71Z"/></svg>