<svg xmlns="http://www.w3.org/2000/svg" viewBox="0 0 32.5 28"><g id="Layer_2" data-name="Layer 2"><g id="Layer_4_copy" data-name="Layer 4 copy"><circle cx="1" cy="1" r="1"/><circle cx="1" cy="9.67" r="1"/><circle cx="1" cy="18.33" r="1"/><circle cx="1" cy="27" r="1"/><path d="M32,1.5H6a.5.5,0,0,1,0-1H32a.5.5,0,0,1,0,1Z"/><path d="M32,10.17H6a.5.5,0,0,1-.5-.5.5.5,0,0,1,.5-.5H32a.5.5,0,0,1,.5.5A.5.5,0,0,1,32,10.17Z"/><path d="M32,18.83H6a.5.5,0,0,1-.5-.5.5.5,0,0,1,.5-.5H32a.5.5,0,0,1,.5.5A.5.5,0,0,1,32,18.83Z"/><path d="M32,27.5H6a.5.5,0,0,1,0-1H32a.5.5,0,0,1,0,1Z"/></g></g></svg>