<svg xmlns="http://www.w3.org/2000/svg" viewBox="0 0 648.15 54"><g id="Layer_2" data-name="Layer 2"><g id="Layer_2-2" data-name="Layer 2"><path d="M78.15,48V6h12V42h24v6Z"/><path d="M120.15,48V6h42v6h-30V24h24v6h-24V42h30v6Z"/><path d="M168.15,48V36h6V30h6V24h-6V18h-6V6h12V18h6v6h6V18h6V6h12V18h-6v6h-6v6h6v6h6V48h-12V36h-6V30h-6v6h-6V48Z"/><path d="M222.15,48V42h12V12h-12V6h36v6h-12V42h12v6Z"/><path d="M264.15,48V6h42v6h-30V24h24v6h-24V42h30v6Z"/><path d="M318.15,48V36h12V48Z"/><path d="M342.15,48V6h30v6h6v6h6V36h-6v6h-6v6Zm12-6h12V36h6V18h-6V12h-12Z"/><path d="M390.15,48V6h42v6h-30V24h24v6h-24V42h30v6Z"/><path d="M456.15,48V42h-6V36h-6V30h-6V6h12V24h6v6h6V24h6V6h12V30h-6v6h-6v6h-6v6Z"/><path d="M516.15,48V6h12V42h24v6Z"/><path d="M564.15,48V42h-6V12h6V6h30v6h6V42h-6v6Zm6-6h18V12h-18Z"/><path d="M618.15,48V42h-6V36h-6V18h6V12h6V6h30v6h-24v6h-6V36h6v6h12V30h-6V24h18V48Z"/><path d="M0,0V54H54V0ZM48,18H42v6H36v6h6v6h6V48H36V36H30V30H24v6H18V48H6V36h6V30h6V24H12V18H6V6H18V18h6v6h6V18h6V6H48Z"/><path d="M492.15,48V36h12V48Z"/></g></g></svg>