<svg xmlns="http://www.w3.org/2000/svg" viewBox="0 0 20.5 20.5"><g id="Layer_2" data-name="Layer 2"><g id="Layer_4_copy" data-name="Layer 4 copy"><circle cx="10.25" cy="10.25" r="5"/><path d="M10.25,0A1.25,1.25,0,0,0,9,1.25v1a1.25,1.25,0,0,0,2.5,0v-1A1.25,1.25,0,0,0,10.25,0Z"/><path d="M10.25,17A1.25,1.25,0,0,0,9,18.25v1a1.25,1.25,0,0,0,2.5,0v-1A1.25,1.25,0,0,0,10.25,17Z"/><path d="M19.25,9h-1a1.25,1.25,0,0,0,0,2.5h1a1.25,1.25,0,0,0,0-2.5Z"/><path d="M2.25,9h-1a1.25,1.25,0,0,0,0,2.5h1a1.25,1.25,0,0,0,0-2.5Z"/><path d="M17.53,3a1.26,1.26,0,0,0-1.8,0L15,3.71a1.27,1.27,0,0,0,0,1.77,1.29,1.29,0,0,0,.89.36,1.27,1.27,0,0,0,.88-.36l.71-.71a1.29,1.29,0,0,0,.38-.87A1.26,1.26,0,0,0,17.53,3Z"/><path d="M5.45,15a1.25,1.25,0,0,0-1.74,0l-.7.71a1.25,1.25,0,0,0,0,1.76,1.26,1.26,0,0,0,.89.38,1.31,1.31,0,0,0,.91-.37l.71-.71a1.24,1.24,0,0,0,.35-.89A1.21,1.21,0,0,0,5.45,15Z"/><path d="M17.5,15.73,16.79,15A1.25,1.25,0,0,0,15,16.79l.71.71a1.29,1.29,0,0,0,.87.35,1.25,1.25,0,0,0,.9-2.12Z"/><path d="M5.48,3.71,4.77,3A1.25,1.25,0,0,0,3,4.77l.71.71a1.29,1.29,0,0,0,.87.35,1.25,1.25,0,0,0,.9-2.12Z"/></g></g></svg>