<svg xmlns="http://www.w3.org/2000/svg" viewBox="0 0 327.07 48.36"><g id="Layer_2" data-name="Layer 2"><g id="Layer_4_copy" data-name="Layer 4 copy"><path d="M0,37V1H8.32v28.7H25.76V37Z"/><path d="M55.56,29.68V37H30.26V1H55.1v7.3H38.57v7h14.2V22H38.57v7.66Z"/><path d="M67.58,1l7.86,12.43L83.3,1h9L79.8,19.24,91.87,37h-9L75.44,25.07,68,37H59L71,19.24,58.56,1Z"/><path d="M95,37V1h8.31V37Z"/><path d="M134.65,29.68V37h-25.3V1H134.2v7.3H117.67v7h14.19V22H117.67v7.66Z"/><path d="M168.51,1,144.56,37h-3.91L164.6,1Z"/><path d="M182.51,37.55a11.42,11.42,0,0,1-5.07-1.14,12.93,12.93,0,0,1-4-3,13.88,13.88,0,0,1-2.61-4.34,14.25,14.25,0,0,1-.94-5.15,15.34,15.34,0,0,1,.91-5.3,14,14,0,0,1,2.52-4.39,11.83,11.83,0,0,1,3.8-3A10.76,10.76,0,0,1,182,10.15a10.3,10.3,0,0,1,5.93,1.75A13.2,13.2,0,0,1,192,16.14V0h3.45V32.58c0,.94.41,1.42,1.22,1.42v3a6.63,6.63,0,0,1-1.22.15,3.18,3.18,0,0,1-2.13-.78,2.43,2.43,0,0,1-.91-1.91V31.92A11.67,11.67,0,0,1,188.1,36,11.28,11.28,0,0,1,182.51,37.55Zm.77-3A8.14,8.14,0,0,0,186,34a11.49,11.49,0,0,0,2.72-1.4,9.25,9.25,0,0,0,2.15-2.08A5.57,5.57,0,0,0,192,28V19.79a9.14,9.14,0,0,0-1.47-2.56,11.64,11.64,0,0,0-2.21-2.11,10.34,10.34,0,0,0-2.66-1.42,8.25,8.25,0,0,0-2.79-.51,8.12,8.12,0,0,0-3.86.92,9.62,9.62,0,0,0-3,2.41,10.87,10.87,0,0,0-1.9,3.42,12.19,12.19,0,0,0-.66,4,11.13,11.13,0,0,0,.76,4.06,10.91,10.91,0,0,0,2.08,3.37,9.91,9.91,0,0,0,3.12,2.31A8.82,8.82,0,0,0,183.28,34.5Z"/><path d="M214.63,37.55a12.85,12.85,0,0,1-5.3-1.09,13.08,13.08,0,0,1-4.19-3,13.84,13.84,0,0,1-2.76-4.39,14.22,14.22,0,0,1-1-5.32,13.93,13.93,0,0,1,1-5.25,13.54,13.54,0,0,1,2.74-4.32,13.09,13.09,0,0,1,4.19-2.94,12.85,12.85,0,0,1,14.71,3,13.81,13.81,0,0,1,2.69,4.31,14,14,0,0,1,1,5.18v.81a1.88,1.88,0,0,1,0,.56H205A11,11,0,0,0,206,29a10.86,10.86,0,0,0,2.16,3.12,9.56,9.56,0,0,0,3,2.05,8.86,8.86,0,0,0,3.63.74,9.59,9.59,0,0,0,2.53-.35,10.19,10.19,0,0,0,2.34-1,8.42,8.42,0,0,0,1.93-1.5,6.37,6.37,0,0,0,1.31-2l3,.81a8.88,8.88,0,0,1-1.73,2.67,12,12,0,0,1-2.58,2.08,12.91,12.91,0,0,1-3.25,1.37A14.19,14.19,0,0,1,214.63,37.55Zm9.75-15.12a11,11,0,0,0-1-3.88,10.53,10.53,0,0,0-2.13-3,9.44,9.44,0,0,0-3-2,9.18,9.18,0,0,0-3.63-.71,9.38,9.38,0,0,0-3.65.71,9.21,9.21,0,0,0-3,2,9.66,9.66,0,0,0-2.08,3,11.63,11.63,0,0,0-.94,3.86Z"/><path d="M240.21,37,229.45,10.61H233l9.08,23.23,9.14-23.23h3.35L243.81,37Z"/><path d="M259.49,0h3.45V31.05a3.17,3.17,0,0,0,.81,2.31,3,3,0,0,0,2.28.84,6.83,6.83,0,0,0,1.32-.15,8.41,8.41,0,0,0,1.42-.41l.61,2.79a11.44,11.44,0,0,1-2.36.66,13.71,13.71,0,0,1-2.41.26A5.1,5.1,0,0,1,260.86,36a5,5,0,0,1-1.37-3.78Z"/><path d="M284.4,37.55a12.66,12.66,0,0,1-5.28-1.09,13,13,0,0,1-4.13-3,13.6,13.6,0,0,1-2.72-4.36,14.4,14.4,0,0,1-1-5.23,14.16,14.16,0,0,1,1-5.28A13.83,13.83,0,0,1,275,14.26a13.38,13.38,0,0,1,4.14-3,12.19,12.19,0,0,1,5.22-1.11,12.35,12.35,0,0,1,5.25,1.11,13.24,13.24,0,0,1,4.16,3,13.83,13.83,0,0,1,2.74,4.36,14.16,14.16,0,0,1,1,5.28,14.4,14.4,0,0,1-1,5.23,13.43,13.43,0,0,1-2.72,4.36,12.7,12.7,0,0,1-9.46,4.06ZM274.81,24a11,11,0,0,0,.76,4.14,11.36,11.36,0,0,0,2.06,3.34,9.12,9.12,0,0,0,3,2.26,8.78,8.78,0,0,0,3.73.81,8.65,8.65,0,0,0,3.73-.83,9.83,9.83,0,0,0,3.07-2.29A10.8,10.8,0,0,0,293.28,28a11.71,11.71,0,0,0,0-8.3,10.94,10.94,0,0,0-2.08-3.4A10,10,0,0,0,288.13,14a8.52,8.52,0,0,0-3.73-.84,8.33,8.33,0,0,0-3.7.84,9.89,9.89,0,0,0-3.05,2.31,11.16,11.16,0,0,0-2.08,3.42A11.42,11.42,0,0,0,274.81,24Z"/><path d="M313.93,37.4a10.82,10.82,0,0,1-5-1.15,12.91,12.91,0,0,1-3.9-3,13.91,13.91,0,0,1-2.57-4.32,14.38,14.38,0,0,1-.91-5,15.65,15.65,0,0,1,.89-5.25A13.46,13.46,0,0,1,305,14.26a12.41,12.41,0,0,1,3.88-3,11.19,11.19,0,0,1,5-1.11,10.21,10.21,0,0,1,5.89,1.7A16.4,16.4,0,0,1,324,16.14V10.61h3.09V37.14A10.75,10.75,0,0,1,326,42a10.42,10.42,0,0,1-2.79,3.53,12,12,0,0,1-4.11,2.13,17.36,17.36,0,0,1-5,.71,14.45,14.45,0,0,1-7.35-1.63,12.92,12.92,0,0,1-4.52-4.36l2.13-1.68a9.46,9.46,0,0,0,4.16,3.73,13.13,13.13,0,0,0,5.58,1.2,12.18,12.18,0,0,0,3.66-.54,9,9,0,0,0,3-1.57,7.4,7.4,0,0,0,2.05-2.64,8.54,8.54,0,0,0,.76-3.73V31.92a11.05,11.05,0,0,1-4.16,4A11.2,11.2,0,0,1,313.93,37.4Zm1-2.9a8.41,8.41,0,0,0,3-.55,10,10,0,0,0,2.66-1.5,9.76,9.76,0,0,0,2-2.11A6.45,6.45,0,0,0,323.62,28V19.79a10.24,10.24,0,0,0-1.52-2.64,10.72,10.72,0,0,0-2.18-2.08,11.21,11.21,0,0,0-2.61-1.37,8.16,8.16,0,0,0-2.82-.51,8.33,8.33,0,0,0-4,.94,9.59,9.59,0,0,0-3,2.46A11,11,0,0,0,305.69,20a12.27,12.27,0,0,0-.64,3.91,11.13,11.13,0,0,0,.76,4.06,10.51,10.51,0,0,0,2.11,3.37A9.92,9.92,0,0,0,311,33.67,9,9,0,0,0,314.9,34.5Z"/></g></g></svg>