<svg xmlns="http://www.w3.org/2000/svg" viewBox="0 0 384.09 48.36"><g id="Layer_2" data-name="Layer 2"><g id="Layer_4_copy" data-name="Layer 4 copy"><path d="M0,37V26.72H5.15V21.57h5.14V16.42H5.15V11.28H0V1H10.29v10.3h5.15v5.14h5.15V11.28h5.15V1H36v10.3H30.88v5.14H25.74v5.15h5.14v5.15H36V37H25.74V26.72H20.59V21.57H15.44v5.15H10.29V37Z"/><path d="M57,37V1h8.32v28.7H82.77V37Z"/><path d="M112.57,29.68V37H87.27V1h24.85v7.3H95.59v7h14.2V22H95.59v7.66Z"/><path d="M124.6,1l7.86,12.43L140.32,1h9L136.82,19.24,148.89,37h-9l-7.45-11.91L125,37h-9l12.07-17.74L115.57,1Z"/><path d="M152.05,37V1h8.32V37Z"/><path d="M191.67,29.68V37h-25.3V1h24.84v7.3H174.68v7h14.2V22h-14.2v7.66Z"/><path d="M225.52,1,201.58,37h-3.91l24-36Z"/><path d="M239.53,37.55a11.36,11.36,0,0,1-5.07-1.14,12.81,12.81,0,0,1-4-3,13.91,13.91,0,0,1-2.62-4.34,14.46,14.46,0,0,1-.93-5.15,15.34,15.34,0,0,1,.91-5.3,14,14,0,0,1,2.51-4.39,11.87,11.87,0,0,1,3.81-3A10.72,10.72,0,0,1,239,10.15a10.35,10.35,0,0,1,5.94,1.75A13.31,13.31,0,0,1,249,16.14V0h3.45V32.58c0,.94.4,1.42,1.22,1.42v3a6.73,6.73,0,0,1-1.22.15,3.18,3.18,0,0,1-2.13-.78,2.44,2.44,0,0,1-.92-1.91V31.92A11.67,11.67,0,0,1,245.11,36,11.21,11.21,0,0,1,239.53,37.55Zm.76-3A8.19,8.19,0,0,0,243,34a11.43,11.43,0,0,0,2.71-1.4,9.29,9.29,0,0,0,2.16-2.08A5.68,5.68,0,0,0,249,28V19.79a9.14,9.14,0,0,0-1.47-2.56,11.94,11.94,0,0,0-2.21-2.11,10.4,10.4,0,0,0-2.67-1.42,8.16,8.16,0,0,0-2.79-.51,8.08,8.08,0,0,0-3.85.92,9.62,9.62,0,0,0-3,2.41,10.68,10.68,0,0,0-1.9,3.42,12.19,12.19,0,0,0-.66,4,11.06,11.06,0,0,0,2.84,7.43,9.91,9.91,0,0,0,3.12,2.31A8.78,8.78,0,0,0,240.29,34.5Z"/><path d="M271.65,37.55a12.78,12.78,0,0,1-5.3-1.09,13,13,0,0,1-4.19-3,13.87,13.87,0,0,1-2.77-4.39,14.21,14.21,0,0,1-1-5.32,13.92,13.92,0,0,1,1-5.25,13.71,13.71,0,0,1,2.74-4.32,13.2,13.2,0,0,1,4.19-2.94,12.88,12.88,0,0,1,14.72,3,13.89,13.89,0,0,1,3.65,9.49v.81a2.29,2.29,0,0,1-.05.56H262A11,11,0,0,0,263,29a10.83,10.83,0,0,0,2.15,3.12,9.68,9.68,0,0,0,3,2.05,8.9,8.9,0,0,0,3.63.74,9.66,9.66,0,0,0,2.54-.35,10.3,10.3,0,0,0,2.33-1,8.42,8.42,0,0,0,1.93-1.5,6.59,6.59,0,0,0,1.32-2l3,.81a8.84,8.84,0,0,1-1.72,2.67,12.32,12.32,0,0,1-2.59,2.08,12.61,12.61,0,0,1-3.25,1.37A14.11,14.11,0,0,1,271.65,37.55Zm9.74-15.12a10.62,10.62,0,0,0-3.12-6.9,9.36,9.36,0,0,0-6.62-2.69,9.4,9.4,0,0,0-3.66.71,9.16,9.16,0,0,0-3,2,9.49,9.49,0,0,0-2.08,3,11.4,11.4,0,0,0-.94,3.86Z"/><path d="M297.22,37,286.46,10.61H290l9.08,23.23,9.13-23.23h3.35L300.82,37Z"/><path d="M316.5,0H320V31.05a3.14,3.14,0,0,0,.82,2.31,3,3,0,0,0,2.28.84,7,7,0,0,0,1.32-.15,8.41,8.41,0,0,0,1.42-.41l.61,2.79a11.63,11.63,0,0,1-2.36.66,13.8,13.8,0,0,1-2.41.26A5.14,5.14,0,0,1,317.87,36a5.06,5.06,0,0,1-1.37-3.78Z"/><path d="M341.42,37.55a12.66,12.66,0,0,1-5.28-1.09,13.09,13.09,0,0,1-4.14-3,13.58,13.58,0,0,1-2.71-4.36,14.72,14.72,0,0,1,0-10.51,14,14,0,0,1,2.74-4.36,13.5,13.5,0,0,1,4.14-3,12.23,12.23,0,0,1,5.23-1.11,12.42,12.42,0,0,1,5.25,1.11,13.47,13.47,0,0,1,4.16,3,13.83,13.83,0,0,1,2.74,4.36,14.58,14.58,0,0,1,0,10.51,13.41,13.41,0,0,1-2.71,4.36,12.7,12.7,0,0,1-9.46,4.06ZM331.83,24a11,11,0,0,0,.76,4.14,11.12,11.12,0,0,0,2.05,3.34,9.26,9.26,0,0,0,3.05,2.26,8.75,8.75,0,0,0,3.73.81,8.65,8.65,0,0,0,3.73-.83,10,10,0,0,0,3.07-2.29A11,11,0,0,0,350.3,28a11.71,11.71,0,0,0,0-8.3,11.13,11.13,0,0,0-2.08-3.4A10.08,10.08,0,0,0,345.15,14a8.52,8.52,0,0,0-3.73-.84,8.37,8.37,0,0,0-3.71.84,9.85,9.85,0,0,0-3,2.31,11,11,0,0,0-2.08,3.42A11.42,11.42,0,0,0,331.83,24Z"/><path d="M371,37.4a10.79,10.79,0,0,1-5-1.15,12.83,12.83,0,0,1-3.91-3,13.89,13.89,0,0,1-2.56-4.32,14.15,14.15,0,0,1-.91-5,15.64,15.64,0,0,1,.88-5.25A13.48,13.48,0,0,1,362,14.26a12.3,12.3,0,0,1,3.88-3,11.16,11.16,0,0,1,5-1.11,10.2,10.2,0,0,1,5.88,1.7A16.1,16.1,0,0,1,381,16.14V10.61h3.1V37.14a10.88,10.88,0,0,1-1,4.85,10.66,10.66,0,0,1-2.79,3.53,12.16,12.16,0,0,1-4.11,2.13,17.41,17.41,0,0,1-5,.71,14.49,14.49,0,0,1-7.36-1.63,12.89,12.89,0,0,1-4.51-4.36l2.13-1.68a9.41,9.41,0,0,0,4.16,3.73,13.07,13.07,0,0,0,5.58,1.2,12.16,12.16,0,0,0,3.65-.54,9,9,0,0,0,3-1.57,7.43,7.43,0,0,0,2.06-2.64,8.68,8.68,0,0,0,.76-3.73V31.92A11.46,11.46,0,0,1,371,37.4Zm1-2.9a8.37,8.37,0,0,0,3-.55,10.11,10.11,0,0,0,2.67-1.5,10,10,0,0,0,2-2.11A6.47,6.47,0,0,0,380.64,28V19.79a10.24,10.24,0,0,0-1.52-2.64,10.77,10.77,0,0,0-2.19-2.08,11.21,11.21,0,0,0-2.61-1.37,8.15,8.15,0,0,0-2.81-.51,8.39,8.39,0,0,0-4,.94,9.71,9.71,0,0,0-3,2.46A11,11,0,0,0,362.7,20a12.54,12.54,0,0,0-.63,3.91,10.93,10.93,0,0,0,.76,4.06,10.66,10.66,0,0,0,2.1,3.37,10.16,10.16,0,0,0,3.12,2.29A9.07,9.07,0,0,0,371.91,34.5Z"/></g></g></svg>